<svg width="20" height="20" viewBox="0 0 20 20" fill="none" xmlns="http://www.w3.org/2000/svg">
<path fill-rule="evenodd" clip-rule="evenodd" d="M18.1805 9.99996C18.1805 9.75889 18.0848 9.52769 17.9143 9.35722C17.7438 9.18676 17.5126 9.09099 17.2716 9.09099L0.910099 9.09099C0.669025 9.09099 0.437824 9.18676 0.267359 9.35722C0.0968952 9.52769 0.00112915 9.75889 0.00112915 9.99996C0.00112915 10.241 0.0968952 10.4722 0.267359 10.6427C0.437824 10.8132 0.669025 10.9089 0.910099 10.9089L17.2716 10.9089C17.5126 10.9089 17.7438 10.8132 17.9143 10.6427C18.0848 10.4722 18.1805 10.241 18.1805 9.99996Z" fill="white"/>
<path fill-rule="evenodd" clip-rule="evenodd" d="M19.733 10.6435C19.8176 10.5591 19.8848 10.4588 19.9306 10.3483C19.9764 10.2379 20 10.1195 20 9.99995C20 9.88039 19.9764 9.762 19.9306 9.65157C19.8848 9.54114 19.8176 9.44083 19.733 9.3564L14.2791 3.90257C14.1085 3.73189 13.877 3.63601 13.6356 3.63601C13.3942 3.63601 13.1627 3.73189 12.992 3.90257C12.8213 4.07325 12.7255 4.30474 12.7255 4.54612C12.7255 4.7875 12.8213 5.01899 12.992 5.18968L17.8041 9.99995L12.992 14.8102C12.8213 14.9809 12.7255 15.2124 12.7255 15.4538C12.7255 15.6952 12.8213 15.9266 12.992 16.0973C13.1627 16.268 13.3942 16.3639 13.6356 16.3639C13.877 16.3639 14.1085 16.268 14.2791 16.0973L19.733 10.6435Z" fill="white"/>
</svg>
