<svg width="45" height="45" viewBox="0 0 45 45" fill="none" xmlns="http://www.w3.org/2000/svg">
<g clip-path="url(#clip0_1_359)">
<path d="M13.2713 37.0019C13.2713 34.0935 10.9063 31.7285 7.99794 31.7285C5.08959 31.7285 2.72457 34.0935 2.72457 37.0019V39.6386C2.72457 41.0921 1.45352 42.3631 0 42.3631V44.9998H5.36126C9.72312 44.9998 13.2713 41.3637 13.2713 37.0019Z" fill="#618DFF"/>
<path d="M25.2137 2.6557C20.8828 2.81179 16.9074 4.52379 13.7386 6.6973C14.0938 9.11496 14.3447 12.1242 14.4783 15.8459C14.9719 15.787 15.4767 15.8182 15.9711 15.9512C18.0838 16.516 19.3361 18.6818 18.7687 20.7945C18.2904 22.5815 16.6762 23.7273 14.9553 23.7273C14.8287 23.7273 14.7024 23.6893 14.5758 23.6771C14.5599 25.7857 14.5121 27.8721 14.4211 29.8644C15.7714 30.4254 16.8268 31.1727 17.516 32.1408C18.9116 34.1016 18.5395 36.4009 18.3927 37.0601C17.9038 39.2497 19.1948 41.4787 21.4066 41.9047C22.6568 42.1442 23.9133 42.2626 25.1608 42.2626C36.0037 42.2626 45.0878 33.4552 44.9994 22.3421C44.9071 11.0709 35.1533 2.2812 25.2137 2.6557ZM29.7957 12.2458C31.3406 10.7035 33.8485 10.7035 35.3909 12.2458C36.9333 13.7882 36.9333 16.2975 35.3909 17.8397V17.8411C33.8487 19.3807 31.3393 19.3809 29.797 17.8411C28.2559 16.2974 28.2559 13.7882 29.7957 12.2458ZM18.5872 13.335C18.026 11.2508 19.2498 9.06319 21.3834 8.49288C23.4807 7.9303 25.6603 9.18167 26.2268 11.2892C26.793 13.3975 25.5436 15.5668 23.4305 16.1325C21.3228 16.6974 19.1535 15.4532 18.5872 13.335ZM28.8893 36.5077C26.7821 37.0722 24.6111 35.8172 24.046 33.7114C23.4797 31.603 24.7291 29.4338 26.8423 28.8681C28.9643 28.3036 31.1219 29.5572 31.6856 31.6657C32.2535 33.7773 30.9978 35.9439 28.8893 36.5077ZM39.1437 26.2532C38.5789 28.3659 36.4081 29.6163 34.3004 29.0495C32.1933 28.4854 30.9354 26.3228 31.5041 24.2062C32.0748 22.0742 34.2585 20.8501 36.3474 21.4099C38.455 21.975 39.709 24.1483 39.1437 26.2532Z" fill="#618DFF"/>
<path d="M11.9371 23.8185C11.9408 23.3774 11.953 22.9432 11.953 22.5002C11.953 12.2766 11.2668 0.000488281 7.99799 0.000488281C4.72921 0.000488281 4.04297 12.2766 4.04297 22.5002C4.04297 22.9432 4.05519 23.3774 4.05888 23.8185H11.9371Z" fill="#618DFF"/>
<path d="M7.99791 29.0916C9.37163 29.0916 10.6452 29.475 11.7721 30.0934C11.829 28.9102 11.8725 27.6916 11.9029 26.455H4.0929C4.12331 27.6916 4.16672 28.9102 4.22376 30.0934C5.35059 29.4749 6.6242 29.0916 7.99791 29.0916Z" fill="#618DFF"/>
</g>
<defs>
<clipPath id="clip0_1_359">
<rect width="45" height="45" fill="white"/>
</clipPath>
</defs>
</svg>
