<svg width="45" height="32" viewBox="0 0 45 32" fill="none" xmlns="http://www.w3.org/2000/svg">
<path d="M42.2745 28.4901C39.1275 28.4901 36.5673 25.9299 36.5673 22.7829V12.34L39.483 9.94442L37.809 7.90704L36.5673 8.92723V0.642334C36.5673 4.35674 29.2752 6.04852 22.5 6.04852C15.7248 6.04852 8.43272 4.35674 8.43264 0.642422V16.2815L5.48827 13.8623L3.81433 15.8997L8.43264 19.6942V22.783C8.43264 25.9299 5.87246 28.4902 2.7255 28.4902H-7.62939e-06V31.127H45V28.4902H42.2745V28.4901ZM29.0926 13.6507H31.7294V18.8201H29.0926V13.6507ZM31.7294 23.76V28.4901H29.0926V23.76H31.7294ZM23.8186 10.8379H26.4554V13.4749H23.8186V10.8379ZM23.8186 15.3109H26.4554V23.9452H23.8186V15.3109ZM13.2706 12.2001H15.9074V17.5538H13.2706V12.2001ZM13.2706 19.8605H15.9074V22.4974H13.2706V19.8605ZM18.5446 18.082H21.1814V28.4902H18.5446V18.082Z" fill="#618DFF"/>
</svg>
