<svg width="43" height="45" viewBox="0 0 43 45" fill="none" xmlns="http://www.w3.org/2000/svg">
<path d="M41.7811 36.1061C38.9151 34.448 36.2414 31.253 36.2414 24.0515C36.2414 17.6545 40.4613 12.8395 41.9425 11.3468C42.2219 11.0624 42.2403 10.6126 41.9851 10.3063L38.8429 6.53486C38.6698 6.33184 38.405 6.2312 38.1407 6.26796C30.0089 7.33167 27.634 2.20943 27.0777 0.522705C26.9719 0.208378 26.6762 -0.0024971 26.3445 -0.000225974H16.6556C16.3239 -0.0024971 16.0282 0.208378 15.9224 0.522705C15.3661 2.20943 12.9912 7.33167 4.85936 6.26796C4.59638 6.23258 4.33342 6.33309 4.16109 6.53486L1.01729 10.3063C0.762112 10.6126 0.780561 11.0624 1.05997 11.3468C2.53876 12.8395 6.75867 17.6545 6.75867 24.0515C6.75867 31.253 4.08505 34.448 1.21902 36.1061C0.856456 36.3187 0.729171 36.7814 0.931948 37.1496L4.09126 42.8359C4.28033 43.1774 4.69366 43.3252 5.05643 43.1811C7.54385 42.1787 16.8232 38.9868 21.5001 44.9998C26.1769 38.9868 35.4563 42.1787 37.9437 43.1811C38.3064 43.3252 38.7198 43.1774 38.9088 42.8359L42.0682 37.1496C42.2709 36.7814 42.1436 36.3187 41.7811 36.1061ZM35.6983 8.73598H35.7123H36.0226C36.4051 8.73598 36.7985 8.72279 37.1973 8.69564C37.4451 8.68014 37.6855 8.78322 37.8451 8.97339L38.9026 10.2419C39.1414 10.5293 39.1414 10.9461 38.9026 11.2335C38.6063 11.5912 38.2959 11.9861 37.9809 12.4174C37.7283 12.7637 37.2429 12.8396 36.8966 12.587C36.5504 12.3344 36.4745 11.8489 36.7271 11.5027C36.9211 11.2374 37.1125 10.9852 37.3013 10.7462L36.9017 10.2668C36.6038 10.2807 36.3097 10.2877 36.0211 10.2877H35.6813C35.2528 10.2841 34.9083 9.93375 34.912 9.50525C34.9156 9.07675 35.2659 8.73234 35.6944 8.73598H35.6983ZM33.7928 16.7747C34.1672 15.8365 34.6034 14.9241 35.0986 14.0437C35.313 13.6805 35.7783 13.5551 36.1462 13.7614C36.5141 13.9677 36.6497 14.4301 36.4517 14.8024C35.9906 15.623 35.5842 16.4731 35.2351 17.3473C35.118 17.6433 34.8319 17.8377 34.5136 17.8376C34.4154 17.8376 34.3182 17.8187 34.2273 17.7818C33.8293 17.6235 33.6349 17.1728 33.7928 16.7747ZM33.8099 19.093C34.2259 19.1913 34.4841 19.6076 34.3871 20.024C34.1721 20.9335 34.0294 21.8587 33.9604 22.7907C33.931 23.1973 33.5921 23.5118 33.1845 23.5107H33.1271C32.9219 23.4958 32.7309 23.4 32.5963 23.2443C32.4617 23.0886 32.3945 22.8858 32.4094 22.6805C32.4847 21.6664 32.6403 20.6597 32.875 19.6702C32.9221 19.4695 33.0472 19.2959 33.2226 19.1876C33.398 19.0793 33.6093 19.0452 33.8099 19.093ZM34.2754 28.4305C34.3115 28.633 34.2657 28.8417 34.148 29.0105C34.0302 29.1792 33.8503 29.2944 33.6477 29.3305C33.6024 29.3382 33.5564 29.3421 33.5104 29.3421C33.135 29.3416 32.8138 29.0723 32.7477 28.7028C32.5734 27.711 32.4594 26.7096 32.4063 25.7041C32.3828 25.2756 32.711 24.9091 33.1395 24.8855C33.568 24.862 33.9345 25.1902 33.9581 25.6187C34.0073 26.5615 34.1135 27.5005 34.2762 28.4305H34.2754ZM27.6852 6.78391C27.806 6.61651 27.9885 6.50414 28.1924 6.47167C28.3962 6.4392 28.6046 6.4893 28.7714 6.61089C29.764 7.32335 30.8707 7.86148 32.044 8.20219C32.415 8.31038 32.6498 8.67504 32.5947 9.05751C32.5397 9.43997 32.2116 9.72365 31.8252 9.72288C31.7508 9.7227 31.6769 9.71173 31.6057 9.69029C30.2631 9.30005 28.9971 8.68343 27.8621 7.86702C27.6949 7.74674 27.5824 7.56491 27.5493 7.36159C27.5163 7.15828 27.5655 6.95017 27.686 6.78314L27.6852 6.78391ZM23.0518 7.75839C23.0518 8.61539 22.357 9.31012 21.5001 9.31012C20.6431 9.31012 19.9483 8.61539 19.9483 7.75839C19.9483 6.9014 20.6431 6.20667 21.5001 6.20667C22.357 6.20667 23.0518 6.9014 23.0518 7.75839ZM10.9545 8.20141C12.1285 7.86149 13.2358 7.32359 14.2287 6.61089C14.576 6.3598 15.0611 6.43778 15.3122 6.78508C15.5633 7.13237 15.4853 7.61747 15.138 7.86857C14.0021 8.68411 12.7357 9.30016 11.3929 9.69029C11.3216 9.71148 11.2477 9.72219 11.1733 9.7221C10.7869 9.72288 10.4588 9.4392 10.4038 9.05673C10.3488 8.67427 10.5836 8.3096 10.9545 8.20141ZM10.1275 19.6888C10.3603 20.6786 10.5146 21.6851 10.5891 22.6992C10.604 22.9044 10.5368 23.1072 10.4022 23.2629C10.2676 23.4186 10.0767 23.5145 9.87143 23.5293H9.81402C9.40642 23.5304 9.0675 23.2159 9.03815 22.8093C8.96994 21.8771 8.82803 20.9517 8.61376 20.0418C8.51563 19.6247 8.77425 19.207 9.19139 19.1089C9.60853 19.0107 10.0262 19.2694 10.1244 19.6865L10.1275 19.6888ZM10.593 25.7219C10.5392 26.7278 10.4244 27.7295 10.2493 28.7214C10.1829 29.0907 9.86177 29.3595 9.4866 29.3599C9.44032 29.3599 9.39413 29.356 9.3485 29.3483C9.1459 29.312 8.96602 29.1967 8.84844 29.0278C8.73087 28.8589 8.68524 28.6501 8.7216 28.4475C8.88594 27.5177 8.99347 26.5787 9.04359 25.6358C9.07226 25.2101 9.43591 24.8854 9.86212 24.9049C10.289 24.9295 10.6156 25.2949 10.5922 25.7219H10.593ZM6.10074 12.5905C5.93441 12.7125 5.72634 12.7632 5.52252 12.7315C5.31869 12.6997 5.1359 12.5881 5.01453 12.4213C4.69953 11.9899 4.38919 11.5943 4.09281 11.2366C3.85449 10.9493 3.85449 10.5331 4.09281 10.2458L5.15264 8.9765C5.31147 8.78573 5.552 8.68248 5.79971 8.69874C6.19928 8.72589 6.59186 8.73908 6.97514 8.73908H7.28548C7.71398 8.73159 8.06742 9.07287 8.07492 9.50137C8.08242 9.92987 7.74113 10.2833 7.31264 10.2908H6.97281C6.68419 10.2908 6.39014 10.2838 6.09298 10.2699L5.69264 10.7493C5.88143 10.9888 6.07281 11.241 6.26678 11.5058C6.38852 11.6718 6.43934 11.8793 6.40806 12.0827C6.37678 12.2861 6.26595 12.4688 6.09997 12.5905H6.10074ZM6.55695 14.8187C6.35311 14.4455 6.48776 13.9777 6.85886 13.7699C7.22996 13.5621 7.69915 13.6918 7.91083 14.0607C8.40522 14.9419 8.84091 15.8547 9.21505 16.7933C9.37295 17.1918 9.17791 17.6429 8.7794 17.8008C8.3809 17.9587 7.92985 17.7636 7.77195 17.3651C7.42345 16.4905 7.01757 15.6399 6.55695 14.8187ZM7.52833 39.9163C7.01238 40.0529 6.52747 40.1964 6.08134 40.3399C6.00458 40.3645 5.92451 40.377 5.84393 40.3772C5.56227 40.3772 5.30272 40.2246 5.16583 39.9784L3.98419 37.8525C3.80314 37.5267 3.87937 37.1182 4.16574 36.8796C4.53855 36.5684 4.89221 36.2349 5.22479 35.8811C5.51855 35.5709 6.00776 35.5566 6.31918 35.849C6.6306 36.1414 6.64706 36.6305 6.356 36.9432C6.12893 37.1853 5.89178 37.4196 5.64453 37.6462L6.21634 38.6742C6.50962 38.5868 6.81505 38.5009 7.13264 38.4166C7.40366 38.3365 7.69676 38.4102 7.89776 38.6088C8.09876 38.8075 8.17586 39.0997 8.09902 39.3716C8.02218 39.6436 7.80356 39.8522 7.52833 39.9163ZM7.53453 34.8461C7.39799 34.8456 7.26406 34.8086 7.1466 34.739C6.77713 34.5223 6.65314 34.0472 6.86962 33.6776C7.33474 32.8775 7.72088 32.0341 8.02255 31.1592C8.11375 30.8974 8.33769 30.7041 8.61001 30.6522C8.88234 30.6002 9.16168 30.6976 9.34281 30.9074C9.52395 31.1173 9.57935 31.4079 9.48815 31.6697C9.1532 32.6401 8.72444 33.5756 8.20798 34.4628C8.06793 34.7015 7.81131 34.8476 7.53453 34.8461ZM12.5621 39.1242C11.7152 39.1613 10.8712 39.2478 10.0344 39.3833C9.99331 39.3898 9.95179 39.393 9.91022 39.3926C9.50653 39.3911 9.17142 39.0803 9.13963 38.6779C9.10783 38.2754 9.38996 37.9158 9.78841 37.851C10.6856 37.706 11.5905 37.6135 12.4985 37.574C12.7757 37.5626 13.0379 37.7 13.1863 37.9344C13.3348 38.1688 13.3469 38.4645 13.2181 38.7102C13.0894 38.956 12.8393 39.1144 12.5621 39.1257V39.1242ZM18.4889 39.1436C18.3927 39.4749 18.0891 39.7029 17.7441 39.703C17.6705 39.703 17.5973 39.6923 17.5269 39.6712C16.7267 39.4413 15.9079 39.2826 15.0798 39.1971C14.8041 39.168 14.5649 38.994 14.4523 38.7407C14.3397 38.4875 14.3707 38.1933 14.5338 37.9692C14.6968 37.745 14.9671 37.6248 15.2427 37.6539C16.1616 37.7496 17.0703 37.9261 17.9582 38.1815C18.1565 38.2383 18.324 38.3717 18.4237 38.5522C18.5234 38.7327 18.5472 38.9455 18.4897 39.1436H18.4889ZM18.0413 4.87219C17.8882 5.10921 17.6186 5.24447 17.3371 5.22542C17.0556 5.20638 16.8066 5.03602 16.6869 4.78055C16.5672 4.52507 16.5956 4.22474 16.7611 3.99624C17.034 3.59674 17.2812 3.18029 17.5013 2.74943C17.634 2.49033 17.9006 2.32735 18.1918 2.32736H19.7435C20.0207 2.32736 20.2768 2.47524 20.4154 2.71529C20.554 2.95534 20.554 3.2511 20.4154 3.49115C20.2768 3.73121 20.0207 3.87908 19.7435 3.87908H18.6573C18.4657 4.22046 18.26 4.55331 18.0413 4.87219ZM23.1829 40.5983C22.7564 40.826 22.3453 41.0816 21.9524 41.3633C21.682 41.5573 21.3181 41.5573 21.0477 41.3633C20.6548 41.0816 20.2437 40.826 19.8172 40.5983C19.5726 40.4679 19.4161 40.2169 19.4068 39.9398C19.3974 39.6628 19.5366 39.4018 19.7718 39.2551C20.0071 39.1085 20.3027 39.0985 20.5473 39.2289C20.8724 39.4027 21.1913 39.5912 21.5001 39.793C21.8104 39.5912 22.1277 39.405 22.4528 39.2289C22.831 39.0273 23.3009 39.1704 23.5026 39.5486C23.7042 39.9267 23.561 40.3967 23.1829 40.5983ZM23.2566 3.87908C22.8281 3.87908 22.4807 3.53172 22.4807 3.10322C22.4807 2.67473 22.8281 2.32736 23.2566 2.32736H24.8083C25.0995 2.32735 25.3661 2.49033 25.4988 2.74943C25.7189 3.18029 25.9661 3.59674 26.239 3.99624C26.4671 4.34943 26.3723 4.82 26.0253 5.05741C25.6784 5.29482 25.2054 5.21269 24.9588 4.87219C24.7401 4.55331 24.5344 4.22046 24.3436 3.87908H23.2566ZM27.9257 39.1971C27.0974 39.2823 26.2783 39.4407 25.4779 39.6704C25.2117 39.7478 24.9243 39.6774 24.7241 39.4856C24.5239 39.2937 24.4412 39.0097 24.5072 38.7404C24.5733 38.471 24.7779 38.2574 25.0442 38.1799C25.9321 37.9251 26.8408 37.7491 27.7597 37.6539C28.1858 37.6089 28.5678 37.9179 28.6128 38.344C28.6578 38.7702 28.3488 39.1521 27.9226 39.1971H27.9257ZM33.0945 39.3934C33.0532 39.3935 33.0119 39.3901 32.9712 39.3833C32.1343 39.248 31.2903 39.1615 30.4434 39.1242C30.0154 39.1065 29.6826 38.7453 29.7001 38.3173C29.7293 37.8947 30.0835 37.5685 30.507 37.574C31.4148 37.6136 32.3194 37.7064 33.2163 37.8518C33.6148 37.9166 33.8969 38.2762 33.8651 38.6786C33.8333 39.0811 33.4982 39.3919 33.0945 39.3934ZM33.5088 31.6503C33.4079 31.3859 33.4589 31.0875 33.6419 30.8717C33.825 30.6558 34.1111 30.5568 34.3884 30.6132C34.6657 30.6697 34.8903 30.8727 34.9744 31.1429C35.275 32.018 35.6601 32.8617 36.1243 33.6621C36.2691 33.9016 36.2737 34.2005 36.1363 34.4443C35.999 34.6881 35.741 34.8391 35.4612 34.8394C35.1813 34.8397 34.923 34.6893 34.7851 34.4457C34.2693 33.5579 33.8418 32.6216 33.5088 31.6503ZM39.0175 37.851L37.8358 39.9776C37.6989 40.2238 37.4394 40.3764 37.1577 40.3764C37.0771 40.3762 36.9971 40.3637 36.9203 40.3392C36.4742 40.1956 35.9893 40.0521 35.4733 39.9155C35.1981 39.8515 34.9795 39.6428 34.9026 39.3709C34.8258 39.0989 34.9029 38.8067 35.1039 38.6081C35.3049 38.4094 35.598 38.3358 35.869 38.4158C36.1866 38.4996 36.492 38.5855 36.7853 38.6734L37.3571 37.6454C37.1104 37.4188 36.8732 37.1845 36.6457 36.9424C36.4545 36.7406 36.3859 36.4519 36.4659 36.1857C36.5459 35.9195 36.7622 35.7164 37.0329 35.6533C37.3037 35.5902 37.5875 35.6768 37.7769 35.8803C38.1096 36.234 38.4633 36.5674 38.8359 36.8788C39.1213 37.1177 39.1969 37.5257 39.0159 37.851H39.0175Z" fill="#618DFF"/>
</svg>
